<?xml version="1.0" standalone="no"?>
<svg version="1.0" xmlns="http://www.w3.org/2000/svg"
 width="272.000000pt" height="135.000000pt" viewBox="0 0 272.000000 135.000000"
 preserveAspectRatio="xMidYMid meet">

<g transform="translate(0.000000,135.000000) scale(0.100000,-0.100000)"
fill="#000000" stroke="none">
<path d="M250 660 l0 -30 70 0 c39 0 70 -4 70 -8 0 -6 -81 -278 -126 -425 -5
-16 3 -17 103 -15 l108 3 3 28 3 27 -70 0 c-39 0 -71 3 -71 8 0 4 29 103 65
221 36 117 65 215 65 217 0 2 -49 4 -110 4 l-110 0 0 -30z"/>
<path d="M655 448 c-59 -134 -110 -249 -112 -256 -4 -10 3 -13 28 -10 33 3 34
5 112 186 44 101 83 179 87 175 4 -4 43 -88 85 -185 75 -171 79 -178 106 -178
16 0 29 2 29 5 0 9 -212 490 -220 498 -4 5 -56 -101 -115 -235z"/>
<path d="M1052 438 l3 -253 25 0 c25 0 25 2 28 88 l3 87 64 0 c63 0 65 1 65
25 0 24 -2 25 -65 25 l-65 0 0 110 0 110 65 0 65 0 0 30 0 30 -95 0 -95 0 2
-252z"/>
<path d="M1362 438 l3 -253 25 0 25 0 3 253 2 252 -30 0 -30 0 2 -252z"/>
<path d="M1534 677 c-2 -7 -3 -120 -2 -252 l3 -240 28 -3 27 -3 0 91 0 91 36
-3 c36 -3 37 -4 68 -88 30 -82 33 -85 65 -88 25 -3 32 0 28 10 -2 7 -21 55
-42 105 l-37 93 30 34 c17 20 33 52 37 74 12 73 -44 162 -114 182 -51 14 -121
13 -127 -3z m152 -81 c40 -40 45 -83 14 -133 -16 -28 -65 -53 -102 -53 -5 0
-8 50 -8 110 l0 110 31 0 c22 0 41 -10 65 -34z"/>
<path d="M1882 486 c3 -223 5 -231 70 -279 31 -23 104 -25 147 -2 65 33 71 57
71 283 l0 202 -25 0 -25 0 0 -185 c0 -146 -3 -192 -15 -215 -29 -56 -85 -66
-134 -24 l-31 26 0 199 0 199 -31 0 -30 0 3 -204z"/>
<path d="M2264 673 c33 -106 126 -417 126 -424 0 -5 -32 -9 -71 -9 l-70 0 3
-28 3 -27 108 -3 c100 -2 108 -1 103 15 -48 155 -126 418 -126 424 0 5 32 9
70 9 l70 0 0 30 0 30 -111 0 c-101 0 -110 -2 -105 -17z"/>
<path d="M737 272 l-27 -28 30 -29 30 -29 27 27 28 27 -31 30 -30 30 -27 -28z"/>
</g>
</svg>
