<?xml version="1.0" encoding="UTF-8"?>
<svg version="1.1" xmlns="http://www.w3.org/2000/svg" width="272" height="135">
<path d="M0 0 C89.76 0 179.52 0 272 0 C272 44.55 272 89.1 272 135 C182.24 135 92.48 135 0 135 C0 90.45 0 45.9 0 0 Z " fill="transparent" transform="translate(0,0)"/>
<path d="M0 0 C15.23570165 0 15.23570165 0 21.3125 6.0625 C24.73561047 10.31436353 25.39877399 14.62984355 25 20 C23.80785 23.27841251 22.84092968 25.24916993 20.25 27.5625 C19.8375 28.036875 19.425 28.51125 19 29 C19.49216994 33.50460626 21.33017946 37.54359635 23.0625 41.6875 C26 48.73884439 26 48.73884439 26 51 C23.69 51 21.38 51 19 51 C17.02 45.39 15.04 39.78 13 34 C10.69 33.67 8.38 33.34 6 33 C6 38.94 6 44.88 6 51 C4.02 51 2.04 51 0 51 C0 34.17 0 17.34 0 0 Z " fill="#2A2A2A" transform="translate(153,66)"/>
<path d="M0 0 C1.98 0 3.96 0 6 0 C6.00410889 1.1552417 6.00821777 2.3104834 6.01245117 3.50073242 C6.03426324 7.79691869 6.08857402 12.09219179 6.15258789 16.38793945 C6.17574988 18.24527213 6.1901594 20.10273582 6.19555664 21.96020508 C6.20485962 24.634455 6.24587697 27.30664968 6.29296875 29.98046875 C6.2890361 30.80773972 6.28510345 31.63501068 6.28105164 32.48735046 C6.389424 36.79304765 6.62319407 38.516394 9.35668945 42.0246582 C11.87070213 44.19356341 11.87070213 44.19356341 15 44.625 C19.12877723 43.76483808 20.41520326 42.31741912 23 39 C23.72798847 35.99239012 23.72169191 33.06448163 23.70703125 29.98046875 C23.72215256 29.12189774 23.73727386 28.26332672 23.75285339 27.3787384 C23.79569388 24.64805769 23.80456459 21.91848314 23.8125 19.1875 C23.83564723 17.33135088 23.86101305 15.475228 23.88867188 13.61914062 C23.95148791 9.07932946 23.98385169 4.54020733 24 0 C25.65 0 27.3 0 29 0 C29.09913284 5.72911572 29.1715934 11.45772839 29.21972656 17.1875 C29.23979906 19.13517966 29.26706332 21.08279937 29.30175781 23.03027344 C29.35046852 25.83543721 29.37301241 28.63980187 29.390625 31.4453125 C29.41127014 32.31116974 29.43191528 33.17702698 29.45318604 34.06912231 C29.45520733 39.5578076 28.64438336 42.63604118 25 47 C21.04039344 50.59964232 16.78450774 50.50927414 11.66015625 50.34375 C7.80386715 49.84543364 5.77610854 48.70670583 3 46 C0.0427076 40.44554456 -0.41097376 36.01125422 -0.29296875 29.78515625 C-0.28872391 28.92941513 -0.28447906 28.07367401 -0.28010559 27.19200134 C-0.26342789 24.4818358 -0.22579705 21.77243752 -0.1875 19.0625 C-0.17243902 17.2155056 -0.1587531 15.36849944 -0.14648438 13.52148438 C-0.11356026 9.01403116 -0.06185469 4.50714528 0 0 Z " fill="#242424" transform="translate(188,66)"/>
<path d="M0 0 C-1.65 1.98 -3.3 3.96 -5 6 C-2.69 4.35 -0.38 2.7 2 1 C6.4935355 4.12571748 9.61080264 6.95268372 10.66015625 12.47265625 C10.7864271 16.50925035 10.70065291 20.46990514 10.5 24.5 C10.4598055 25.90875252 10.42331518 27.31761586 10.390625 28.7265625 C10.29672545 32.15389598 10.16549622 35.57550125 10 39 C5.84509518 38.17236628 4.6030823 36.68960488 2 33.3125 C-2.23635371 27.92334887 -6.64949126 22.73299413 -11.18945312 17.59692383 C-15 13.21838744 -15 13.21838744 -15 11 C-15.66 11 -16.32 11 -17 11 C-16.23435342 6.67409682 -14.20722309 4.42710526 -11.12109375 1.41796875 C-7.56365077 -0.96021137 -4.10646092 -0.58663727 0 0 Z " fill="#E4DAC7" transform="translate(126,18)"/>
<path d="M0 0 C2.50816948 2.24988602 3.81140648 4.35516133 5.17651367 7.42382812 C5.57670212 8.31485229 5.97689056 9.20587646 6.38920593 10.12390137 C6.81119766 11.08332642 7.23318939 12.04275146 7.66796875 13.03125 C8.10764481 14.01871216 8.54732086 15.00617432 9.00032043 16.02355957 C9.92733489 18.11007627 10.85089185 20.19813203 11.77124023 22.28759766 C13.18378389 25.49157101 14.60959885 28.68939027 16.03710938 31.88671875 C16.93569467 33.91370855 17.83350758 35.94104098 18.73046875 37.96875 C19.37256538 39.40788757 19.37256538 39.40788757 20.02763367 40.87609863 C20.41836563 41.7671228 20.8090976 42.65814697 21.21166992 43.57617188 C21.55791916 44.35988159 21.9041684 45.14359131 22.26091003 45.9510498 C23 48 23 48 23 51 C21.02 51 19.04 51 17 51 C15.04141571 46.67730453 13.08426586 42.35396356 11.12841797 38.0300293 C10.46344341 36.56045171 9.79808347 35.09104844 9.13232422 33.62182617 C8.17312849 31.50485682 7.2153397 29.38725573 6.2578125 27.26953125 C5.81394699 26.29111015 5.81394699 26.29111015 5.3611145 25.29292297 C3.82487118 21.89147802 2.35406527 18.47814619 1 15 C-3.71079543 23.90455234 -7.70327949 33.08150789 -11.65966797 42.34008789 C-12.07748535 43.31453857 -12.49530273 44.28898926 -12.92578125 45.29296875 C-13.30130127 46.1749292 -13.67682129 47.05688965 -14.0637207 47.96557617 C-15 50 -15 50 -16 51 C-17.99958364 51.04080783 -20.00045254 51.04254356 -22 51 C-19.44224739 42.54261364 -15.79693275 34.63891232 -12.125 26.625 C-11.5060963 25.26581349 -10.88760416 23.9064395 -10.26953125 22.546875 C-8.79176458 19.29850144 -7.30927125 16.05231341 -5.82531738 12.8067627 C-3.87672235 8.54095068 -1.93912718 4.27012199 0 0 Z " fill="#292929" transform="translate(76,66)"/>
<path d="M0 0 C4.23139307 -0.61707816 7.61898202 -0.82316835 11.37890625 1.41796875 C13.49575018 3.19399702 15.34630257 4.78305413 17 7 C17 11 17 11 14.84375 13.34765625 C13.9053125 14.22292969 12.966875 15.09820312 12 16 C10.11395109 18.10153946 8.30986341 20.27022659 6.5 22.4375 C6.03980469 22.98470703 5.57960937 23.53191406 5.10546875 24.09570312 C2.05920872 27.72118162 -0.97011046 31.3608392 -4 35 C-4.33 34.34 -4.66 33.68 -5 33 C-4.34 31.35 -3.68 29.7 -3 28 C-5.97 33.445 -5.97 33.445 -9 39 C-9.33 39 -9.66 39 -10 39 C-10 29.1 -10 19.2 -10 9 C-9.34 9 -8.68 9 -8 9 C-7.773125 8.4225 -7.54625 7.845 -7.3125 7.25 C-5.66961977 4.4336339 -3.60466773 2.91922886 -1 1 C1.475 2.98 1.475 2.98 4 5 C2.68 3.35 1.36 1.7 0 0 Z " fill="#E3D8C4" transform="translate(147,18)"/>
<path d="M0 0 C7.26 0 14.52 0 22 0 C22 1.98 22 3.96 22 6 C17.38 6 12.76 6 8 6 C8.60328125 7.94261719 9.2065625 9.88523437 9.828125 11.88671875 C10.42725788 13.81648397 11.02638949 15.74624959 11.62548828 17.67602539 C12.03460891 18.99375206 12.44378647 20.31146106 12.85302734 21.62915039 C13.04977051 22.26264404 13.24651367 22.8961377 13.44921875 23.54882812 C13.64608276 24.18265411 13.84294678 24.8164801 14.04577637 25.46951294 C14.442613 26.7485232 14.83885251 28.02771888 15.23449707 29.30709839 C16.20926503 32.45890512 17.19257954 35.60754258 18.18945312 38.75244141 C18.55490234 39.91308105 18.92035156 41.0737207 19.296875 42.26953125 C19.62526367 43.30311768 19.95365234 44.3367041 20.29199219 45.40161133 C21 48 21 48 21 51 C13.74 51 6.48 51 -1 51 C-1 49.02 -1 47.04 -1 45 C3.62 45 8.24 45 13 45 C12.56429687 43.57171875 12.12859375 42.1434375 11.6796875 40.671875 C10.10718789 35.51409404 8.53834143 30.35520952 6.97119141 25.19580078 C6.34146249 23.12361589 5.71097518 21.05166126 5.07958984 18.97998047 C4.23784146 16.21663676 3.39969168 13.45222708 2.5625 10.6875 C2.30388184 9.8409082 2.04526367 8.99431641 1.77880859 8.12207031 C0 2.22847145 0 2.22847145 0 0 Z " fill="#2B2B2B" transform="translate(226,66)"/>
<path d="M0 0 C7.26 0 14.52 0 22 0 C20.65657559 6.04540983 19.22847359 11.86537079 17.3984375 17.75390625 C17.1571109 18.54022934 16.9157843 19.32655243 16.66714478 20.13670349 C15.9063527 22.61298506 15.1407688 25.08775349 14.375 27.5625 C13.85384702 29.25576103 13.33301086 30.9491196 12.8125 32.64257812 C11.54532093 36.76285379 10.27384644 40.88178102 9 45 C13.62 45 18.24 45 23 45 C23 46.98 23 48.96 23 51 C15.74 51 8.48 51 1 51 C4.54218373 35.75320917 9.28358894 20.9151461 14 6 C9.38 6 4.76 6 0 6 C0 4.02 0 2.04 0 0 Z " fill="#292929" transform="translate(25,66)"/>
<path d="M0 0 C6.27 0 12.54 0 19 0 C19 1.98 19 3.96 19 6 C14.71 6 10.42 6 6 6 C6 13.26 6 20.52 6 28 C10.29 28 14.58 28 19 28 C19 29.65 19 31.3 19 33 C14.71 33 10.42 33 6 33 C6 38.94 6 44.88 6 51 C4.02 51 2.04 51 0 51 C0 34.17 0 17.34 0 0 Z " fill="#262626" transform="translate(105,66)"/>
<path d="M0 0 C1.98 0 3.96 0 6 0 C6 16.83 6 33.66 6 51 C4.02 51 2.04 51 0 51 C0 34.17 0 17.34 0 0 Z " fill="#292929" transform="translate(136,66)"/>
<path d="M0 0 C5.28 0 10.56 0 16 0 C11.17325864 9.76631564 6.23529248 19.44559123 1 29 C0.67 29 0.34 29 0 29 C0 19.43 0 9.86 0 0 Z " fill="#B3955E" transform="translate(137,28)"/>
<path d="M0 0 C5.28 0 10.56 0 16 0 C16 9.57 16 19.14 16 29 C13.60471019 25.80628025 11.7474655 22.87905234 9.86328125 19.39453125 C9.28642578 18.32912109 8.70957031 17.26371094 8.11523438 16.16601562 C7.52033203 15.05935547 6.92542969 13.95269531 6.3125 12.8125 C5.40274414 11.13510742 5.40274414 11.13510742 4.47460938 9.42382812 C0 1.13397251 0 1.13397251 0 0 Z " fill="#B3945E" transform="translate(120,28)"/>
<path d="M0 0 C7.06735014 0 7.35039837 0.45852864 12 5 C13.53214888 8.06429776 13.22938548 10.6165642 13 14 C11.53857683 17.57236775 10.36404085 18.77537905 7.0625 20.8125 C4 22 4 22 0 22 C0 14.74 0 7.48 0 0 Z " fill="#B49661" transform="translate(159,72)"/>
<path d="M0 0 C2.97 0 5.94 0 9 0 C6.14293969 4.46373658 3.02354587 8.49147094 -0.4375 12.5 C-1.37391385 13.59356513 -2.31011291 14.68731423 -3.24609375 15.78125 C-3.92647705 16.57402344 -3.92647705 16.57402344 -4.62060547 17.3828125 C-6.77010554 19.90286355 -8.88485471 22.45107718 -11 25 C-11.33 24.34 -11.66 23.68 -12 23 C-11.01196289 20.66162109 -11.01196289 20.66162109 -9.47265625 17.7734375 C-8.92802734 16.7421875 -8.38339844 15.7109375 -7.82226562 14.6484375 C-7.24154297 13.56820312 -6.66082031 12.48796875 -6.0625 11.375 C-5.48564453 10.28703125 -4.90878906 9.1990625 -4.31445312 8.078125 C-2.88337571 5.38154938 -1.44496841 2.68915031 0 0 Z " fill="#B59863" transform="translate(154,28)"/>
<path d="M0 0 C2.97 0 5.94 0 9 0 C11.03374027 3.78488085 13.04976448 7.57891335 15.0625 11.375 C15.64322266 12.45523438 16.22394531 13.53546875 16.82226562 14.6484375 C17.36689453 15.6796875 17.91152344 16.7109375 18.47265625 17.7734375 C18.98062744 18.72653809 19.48859863 19.67963867 20.01196289 20.66162109 C20.33801514 21.43328613 20.66406738 22.20495117 21 23 C20.67 23.66 20.34 24.32 20 25 C0 2.17293233 0 2.17293233 0 0 Z " fill="#B59762" transform="translate(110,28)"/>
<path d="M0 0 C4.17159411 -0.59594202 7.59810549 -0.99046895 11.15625 1.5234375 C16 6.38703893 16 6.38703893 16 8 C11.82840589 8.59594202 8.40189451 8.99046895 4.84375 6.4765625 C0 1.61296107 0 1.61296107 0 0 Z " fill="#B49661" transform="translate(147,18)"/>
<path d="M0 0 C1.23556641 0.01740234 1.23556641 0.01740234 2.49609375 0.03515625 C3.32238281 0.04417969 4.14867188 0.05320312 5 0.0625 C5.63808594 0.07410156 6.27617188 0.08570312 6.93359375 0.09765625 C5.95493037 1.24391947 4.97564788 2.38965413 3.99609375 3.53515625 C3.45082031 4.17324219 2.90554687 4.81132812 2.34375 5.46875 C1.5656368 6.36756774 0.77422847 7.25702153 -0.06640625 8.09765625 C-1.58568663 8.16945589 -3.10808107 8.18157632 -4.62890625 8.16015625 C-5.45519531 8.15113281 -6.28148438 8.14210938 -7.1328125 8.1328125 C-7.77089844 8.12121094 -8.40898438 8.10960937 -9.06640625 8.09765625 C-8.08774287 6.95139303 -7.10846038 5.80565837 -6.12890625 4.66015625 C-5.58363281 4.02207031 -5.03835937 3.38398438 -4.4765625 2.7265625 C-2.20642743 0.10427351 -2.20642743 0.10427351 0 0 Z " fill="#B69965" transform="translate(119.06640625,17.90234375)"/>
<path d="M0 0 C1.98 1.65 3.96 3.3 6 5 C4.84826645 7.46800047 3.95216435 9.04783565 2 11 C-1.29279709 10.68134222 -2.86535088 9.45484649 -5 7 C-3.70700306 4.11562221 -2.34058637 2.12780579 0 0 Z " fill="#2F2F2F" transform="translate(76,105)"/>
<path d="M0 0 C4.95 0 9.9 0 15 0 C10.60546875 5.46875 10.60546875 5.46875 9 7 C6 7 6 7 4.39453125 5.46875 C2.9296875 3.64583333 1.46484375 1.82291667 0 0 Z " fill="#B49762" transform="translate(129,18)"/>
<path d="M0 0 C5.46875 4.58984375 5.46875 4.58984375 7 6 C7 6.33 7 6.66 7 7 C2.71 7 -1.58 7 -6 7 C-4.02 4.69 -2.04 2.38 0 0 Z " fill="#B2935D" transform="translate(145,19)"/>
<path d="M0 0 C5.46875 4.58984375 5.46875 4.58984375 7 6 C7 6.33 7 6.66 7 7 C2.71 7 -1.58 7 -6 7 C-4.02 4.69 -2.04 2.38 0 0 Z " fill="#B1935B" transform="translate(127,19)"/>
<path d="M0 0 C0.33 0.66 0.66 1.32 1 2 C0.29296875 3.76953125 0.29296875 3.76953125 -0.8125 5.8125 C-2.39794541 8.82429768 -3.80292815 11.8078084 -5 15 C-5.99 15 -6.98 15 -8 15 C-5.36 10.05 -2.72 5.1 0 0 Z " fill="#E9E0D1" transform="translate(146,41)"/>
<path d="M0 0 C0.66 0 1.32 0 2 0 C3.32 2.64 4.64 5.28 6 8 C5.01 8 4.02 8 3 8 C2.01 5.36 1.02 2.72 0 0 Z " fill="#E3D9C6" transform="translate(129,48)"/>
</svg>
